<svg width="120" height="48" viewBox="0 0 120 48" fill="none" xmlns="http://www.w3.org/2000/svg">
  <!-- ANT Logo -->
  <g>
    <!-- Letter A -->
    <path d="M8 38L18 10H22L32 38H27L24.5 31H15.5L13 38H8ZM16.5 27H23.5L20 15.5L16.5 27Z" fill="#00A651"/>
    
    <!-- Letter N -->
    <path d="M38 38V10H42L52 28V10H57V38H53L43 20V38H38Z" fill="#00A651"/>
    
    <!-- Letter T -->
    <path d="M64 14V10H88V14H78V38H74V14H64Z" fill="#00A651"/>
    
    <!-- Decorative leaf accent -->
    <path d="M92 24C92 24 94 20 98 20C102 20 104 24 104 24C104 24 102 28 98 28C94 28 92 24 92 24Z" fill="#00A651" opacity="0.6"/>
  </g>
</svg>
